<svg width="422" height="87" viewBox="0 0 422 87" fill="none" xmlns="http://www.w3.org/2000/svg">
<path d="M343.104 4V82H354.52V4H343.104Z" fill="black"/>
<path fill-rule="evenodd" clip-rule="evenodd" d="M239.879 83.259C235.374 83.259 231.611 82.21 228.589 80.111C228.258 79.882 227.937 79.643 227.624 79.395V82H217.551V5.25909H229.051V38.1348C231.872 36.3209 235.285 35.4139 239.291 35.4139C243.628 35.4139 247.405 36.4492 250.623 38.5196C253.841 40.5901 256.331 43.4301 258.093 47.0395C259.884 50.621 260.779 54.72 260.779 59.336C260.779 63.869 259.898 67.94 258.135 71.55C256.401 75.159 253.966 78.013 250.833 80.111C247.699 82.21 244.048 83.259 239.879 83.259ZM228.631 52.118C227.959 54.188 227.624 56.594 227.624 59.336C227.624 62.078 227.959 64.485 228.631 66.555C229.302 68.626 230.394 70.234 231.904 71.382C233.443 72.529 235.486 73.102 238.032 73.102C240.494 73.102 242.509 72.487 244.076 71.256C245.643 70.025 246.804 68.374 247.559 66.303C248.315 64.205 248.692 61.883 248.692 59.336C248.692 56.818 248.301 54.524 247.517 52.454C246.734 50.355 245.517 48.6902 243.866 47.4591C242.243 46.2001 240.158 45.5705 237.612 45.5705C235.234 45.5705 233.303 46.1441 231.821 47.2913C230.366 48.4384 229.302 50.047 228.631 52.118Z" fill="black"/>
<path d="M199.503 55.223V82H210.918V52.202C210.918 47.2493 209.589 43.2482 206.931 40.1984C204.301 37.1207 200.398 35.5818 195.222 35.5818C192.2 35.5818 189.444 36.2533 186.954 37.5963C184.674 38.814 182.814 40.4874 181.374 42.6167C180.3 40.6843 178.816 39.0948 176.923 37.8481C174.657 36.3372 171.747 35.5818 168.194 35.5818C165.088 35.5818 162.276 36.2673 159.758 37.6383C157.855 38.686 156.246 40.0196 154.931 41.6391V36.673H144.859V82H156.358V54.552C156.358 51.95 157.072 49.8374 158.499 48.2146C159.954 46.5638 161.87 45.7384 164.248 45.7384C166.739 45.7384 168.683 46.5778 170.082 48.2566C171.509 49.9074 172.223 52.23 172.223 55.223V82H183.638V54.552C183.638 52.817 183.96 51.292 184.604 49.9773C185.275 48.6343 186.198 47.599 187.374 46.8716C188.549 46.1161 189.934 45.7384 191.529 45.7384C194.019 45.7384 195.963 46.5778 197.362 48.2566C198.789 49.9074 199.503 52.23 199.503 55.223Z" fill="black"/>
<path d="M103.96 81.538C106.198 82.741 109.094 83.343 112.648 83.343C117.096 83.343 120.776 82.378 123.686 80.447C125.067 79.54 126.284 78.499 127.337 77.326V82H137.41V36.673H125.91V59.672C125.91 62.47 125.588 64.736 124.945 66.471C124.329 68.178 123.532 69.479 122.552 70.374C121.573 71.242 120.524 71.829 119.405 72.137C118.286 72.445 117.236 72.599 116.257 72.599C113.823 72.599 111.934 72.053 110.591 70.962C109.276 69.871 108.325 68.514 107.737 66.891C107.15 65.268 106.8 63.659 106.688 62.064C106.576 60.442 106.52 59.113 106.52 58.077V36.673H94.937V62.106C94.937 62.862 94.992 64.065 95.104 65.716C95.216 67.367 95.538 69.199 96.07 71.214C96.601 73.2 97.483 75.117 98.714 76.964C99.973 78.81 101.722 80.335 103.96 81.538Z" fill="black"/>
<path d="M265.818 36.673V82H277.317V58.833C277.317 57.098 277.555 55.545 278.031 54.174C278.507 52.775 279.206 51.572 280.129 50.565C281.053 49.5296 282.186 48.7042 283.529 48.0887C284.872 47.4452 286.369 47.0674 288.02 46.9555C289.698 46.8156 291.167 46.9415 292.426 47.3332V36.673C291.055 36.5051 289.684 36.4771 288.313 36.5891C286.942 36.673 285.613 36.9108 284.326 37.3025C283.039 37.6663 281.85 38.1839 280.759 38.8554C279.332 39.6948 278.129 40.758 277.15 42.0451C276.686 42.6544 276.266 43.295 275.89 43.967V36.673H265.818Z" fill="black"/>
<path fill-rule="evenodd" clip-rule="evenodd" d="M316.462 83.259C311.817 83.259 307.718 82.266 304.165 80.279C300.639 78.265 297.869 75.509 295.855 72.011C293.868 68.486 292.875 64.457 292.875 59.924C292.875 54.972 293.854 50.663 295.813 46.9975C297.771 43.3321 300.471 40.4922 303.913 38.4777C307.354 36.4352 311.314 35.4139 315.79 35.4139C320.547 35.4139 324.59 36.5331 327.919 38.7715C331.249 41.0098 333.711 44.1575 335.306 48.2146C336.901 52.272 337.461 57.042 336.985 62.526H305.158C305.514 65.247 306.359 67.457 307.69 69.157C309.537 71.452 312.237 72.599 315.79 72.599C318.029 72.599 319.945 72.109 321.54 71.13C323.135 70.151 324.352 68.738 325.191 66.891L336.607 70.165C334.9 74.306 332.2 77.523 328.507 79.817C324.842 82.112 320.827 83.259 316.462 83.259ZM323.471 48.3825C324.446 49.7079 325.101 51.597 325.435 54.048H305.458C305.903 51.955 306.647 50.234 307.69 48.8861C309.537 46.5078 312.405 45.3187 316.294 45.3187C319.624 45.3187 322.016 46.34 323.471 48.3825Z" fill="black"/>
<path d="M363.744 82V4H375.16V82H363.744Z" fill="black"/>
<path fill-rule="evenodd" clip-rule="evenodd" d="M387.868 81.412C390.135 82.643 392.891 83.259 396.136 83.259C400.053 83.259 403.285 82.587 405.831 81.244C407.861 80.163 409.777 78.561 411.581 76.436V82H421.57V54.3C421.57 52.23 421.486 50.355 421.318 48.6763C421.15 46.9975 420.618 45.3187 419.723 43.6399C418.128 40.6181 415.778 38.4917 412.672 37.2606C409.566 36.0295 406.013 35.4139 402.012 35.4139C396.556 35.4139 392.247 36.5891 389.085 38.9394C385.924 41.2896 383.769 44.3394 382.622 48.0887L392.947 51.362C393.674 49.2918 394.947 47.8509 396.766 47.0395C398.584 46.228 400.333 45.8223 402.012 45.8223C405.034 45.8223 407.188 46.4519 408.475 47.711C409.486 48.6997 410.1 50.128 410.317 51.997C408.384 52.29 406.553 52.568 404.824 52.831C401.886 53.251 399.256 53.699 396.934 54.174C394.611 54.65 392.611 55.196 390.932 55.811C388.498 56.706 386.553 57.826 385.098 59.169C383.671 60.484 382.636 62.008 381.992 63.743C381.349 65.478 381.027 67.395 381.027 69.493C381.027 72.011 381.601 74.319 382.748 76.418C383.923 78.488 385.63 80.153 387.868 81.412ZM403.859 73.186C402.432 73.914 400.669 74.278 398.57 74.278C397.255 74.278 396.122 74.082 395.171 73.69C394.22 73.298 393.478 72.739 392.947 72.011C392.443 71.256 392.191 70.36 392.191 69.325C392.191 68.57 392.345 67.884 392.653 67.269C392.988 66.653 393.492 66.094 394.164 65.59C394.863 65.058 395.772 64.569 396.892 64.121C397.871 63.757 399.004 63.421 400.291 63.114C401.578 62.806 403.271 62.47 405.369 62.106C406.718 61.855 408.332 61.568 410.212 61.247C410.186 62.045 410.138 62.947 410.07 63.953C409.986 65.576 409.65 67.003 409.063 68.234C408.755 68.877 408.167 69.675 407.3 70.626C406.461 71.577 405.314 72.431 403.859 73.186Z" fill="black"/>
<path fill-rule="evenodd" clip-rule="evenodd" d="M31.9365 37H0.936523V50.5C0.936523 70.658 17.2781 87 37.4365 87C57.595 87 73.937 70.658 73.937 50.5V37H41.9365V15.5C41.9365 6.9396 34.9969 0 26.4365 0C17.8761 0 10.9365 6.9396 10.9365 15.5H20.9365C20.9365 12.4624 23.399 10 26.4365 10C29.4741 10 31.9365 12.4624 31.9365 15.5V37ZM31.9365 47V66H41.9365V47H63.937V50.5C63.937 65.136 52.072 77 37.4365 77C22.801 77 10.9365 65.136 10.9365 50.5V47H31.9365Z" fill="#EE1B23"/>
</svg>
